<svg xmlns="http://www.w3.org/2000/svg" xmlns:xlink="http://www.w3.org/1999/xlink" id="Layer_1" x="0px" y="0px" viewBox="0 0 800 144.9" style="enable-background:new 0 0 800 144.9;" xml:space="preserve"><style type="text/css">	.st0{fill:#EBEBEB;}	.st1{fill-rule:evenodd;clip-rule:evenodd;fill:#EBEBEB;}</style><g>	<path class="st0" d="M754.2,58l17.1,41.3h0.2L788.2,58H800l-36,82.9h-11.2l13.4-29L742.5,58H754.2z M715.4,56.1  c8,0,14.3,2.1,18.9,6.4c4.6,4.3,6.9,10.1,6.9,17.6v35.5h-10.3v-8h-0.5c-4.5,6.6-10.4,9.9-17.8,9.9c-6.3,0-11.6-1.9-15.9-5.6  c-4.3-3.8-6.4-8.5-6.4-14.1c0-5.9,2.2-10.7,6.8-14.2c4.5-3.5,10.5-5.3,18-5.3c6.4,0,11.7,1.2,15.9,3.5v-2.5c0-3.8-1.5-6.9-4.5-9.6  c-3-2.6-6.5-3.9-10.5-3.9c-6,0-10.8,2.5-14.3,7.6l-9.5-6C697.4,59.9,705.2,56.1,715.4,56.1z M660.8,31.4c7.3,0,13.5,2.4,18.6,7.3  c5.2,4.9,7.7,10.8,7.7,17.7c0,7.1-2.6,13.1-7.7,17.8c-5,4.8-11.2,7.2-18.6,7.2H643v34.1h-10.8V31.4H660.8z M716.8,86.8  c-4.4,0-8,1.1-11,3.2c-2.9,2.2-4.4,4.8-4.4,7.9c0,2.8,1.2,5.2,3.6,7c2.4,1.9,5.2,2.8,8.4,2.8c4.5,0,8.6-1.7,12.2-5  c3.6-3.4,5.3-7.3,5.3-11.9C727.5,88.1,722.8,86.8,716.8,86.8z M661.1,41.9H643v29.3h18.1c4.3,0,7.9-1.4,10.7-4.3  c2.9-2.9,4.3-6.3,4.3-10.3c0-3.9-1.4-7.3-4.3-10.2C669,43.4,665.4,41.9,661.1,41.9z"></path>	<path class="st0" d="M479.6,56.2c7.3,0,13.1,3.2,16.1,6.8h0.5v-5H509v55c0,22.6-13.3,31.9-29.1,31.9c-14.8,0-23.7-10-27.1-18.1  l11.7-4.9c2.1,5,7.2,10.9,15.4,10.9c10.1,0,16.3-6.3,16.3-18v-4.4h-0.5c-3,3.7-8.8,7-16.1,7c-15.3,0-29.3-13.3-29.3-30.5  C450.3,69.6,464.3,56.2,479.6,56.2z M567.6,56.3c15.9,0,23.6,12.6,26.2,19.5l1.4,3.5l-40.9,16.9c3.1,6.1,8,9.3,14.8,9.3  c6.8-0.2,11.6-3.5,15.1-8.6l10.4,7c-3.4,5-11.5,13.6-25.5,13.6c-17.4,0-30.3-13.4-30.3-30.6C538.8,68.7,551.9,56.3,567.6,56.3z   M268.1,22.4c14.5,0,24.8,5.7,32.5,13.1l-9.2,9.2c-5.6-5.2-13.1-9.3-23.4-9.3c-19.1,0-34.1,15.4-34.1,34.5  c0,19.1,14.9,34.5,34.1,34.5c12.4,0,19.5-5,24-9.5c3.7-3.7,6.1-9,7.1-16.3h-31.4v-13h44c0.5,2.3,0.7,5.1,0.7,8.1  c0,9.7-2.7,21.8-11.2,30.4c-8.4,8.7-19,13.3-33.1,13.3c-26.2,0-48.2-21.3-48.2-47.5C219.9,43.7,241.9,22.4,268.1,22.4z M347.7,56.2  c16.9,0,30.7,12.9,30.7,30.6c0,17.6-13.8,30.6-30.7,30.6c-16.9,0-30.7-13-30.7-30.6C316.9,69.1,330.7,56.2,347.7,56.2z M414.5,56.2  c16.9,0,30.7,12.9,30.7,30.6c0,17.6-13.8,30.6-30.7,30.6c-16.9,0-30.7-13-30.7-30.6C383.8,69.1,397.6,56.2,414.5,56.2z M532.1,25.6  v89.9h-13.4V25.6H532.1z M347.8,68.3c-9.2,0-17.2,7.5-17.2,18.5c0,10.9,8,18.5,17.2,18.5S365,97.7,365,86.8  C365,75.8,357,68.3,347.8,68.3z M414.5,68.3c-9.2,0-17.2,7.5-17.2,18.5c0,10.9,8,18.5,17.2,18.5c9.2,0,17.2-7.6,17.2-18.5  C431.7,75.8,423.7,68.3,414.5,68.3z M480.9,68.2c-9.3,0-17,7.9-17,18.7c0,10.7,7.8,18.4,17,18.4c9.1,0,16.3-7.7,16.3-18.4  C497.2,76.1,490,68.2,480.9,68.2z M568,68c-6.8,0-16.3,6.1-15.9,17.9l27.3-11.4C577.9,70.7,573.4,68,568,68z"></path>	<path class="st0" d="M149,27c-16.2-9.3-36.9-3.8-46.2,12.4L79.2,80.3C72.4,92,81.2,96.2,91,102l22.7,13.1  c7.7,4.4,17.5,1.8,21.9-5.9l24.2-42C167.9,53.2,163.1,35.2,149,27z"></path>	<path class="st0" d="M122.3,43.9L99.6,30.8c-12.5-7-19.6-7.4-24.8,0.8L41.4,89.5c-9.3,16.2-3.8,36.9,12.4,46.2  c14.1,8.1,32.1,3.3,40.3-10.8l34.1-59.1C132.6,58.2,130,48.4,122.3,43.9z"></path>	<path class="st0" d="M126.7,14.1l-15.9-9.2C93.1-5.2,70.6,0.8,60.4,18.4L30.1,71c-4.5,7.8-1.8,17.7,5.9,22.1l17.8,10.3  c8.8,5.1,20.1,2.1,25.2-6.7l34.7-60c7.2-12.4,23.1-16.7,35.5-9.5L126.7,14.1z"></path>	<path class="st0" d="M64.7,33.5l-17.2-9.9c-7.7-4.4-17.5-1.8-21.9,5.9L4.9,65.1c-10.2,17.6-4.1,40.1,13.5,50.2l13.1,7.6l15.9,9.2  l6.9,4c-12.3-8.2-16.1-24.6-8.7-37.6l5.4-9.2l19.6-33.9C75.1,47.7,72.4,37.9,64.7,33.5z"></path></g></svg>