<svg xmlns="http://www.w3.org/2000/svg" xmlns:xlink="http://www.w3.org/1999/xlink" id="Layer_1" x="0px" y="0px" viewBox="0 0 800 206.7" style="enable-background:new 0 0 800 206.7;" xml:space="preserve"><style type="text/css">	.st0{fill:#EBEBEB;}	.st1{fill-rule:evenodd;clip-rule:evenodd;fill:#EBEBEB;}</style><g>	<path class="st0" d="M260.4,59.8c-2.5-2.5-3.8-5.6-3.8-9.2c0-3.6,1.3-6.7,3.8-9.2c2.5-2.5,5.6-3.8,9.3-3.8c3.6,0,6.6,1.3,9.2,3.8  c2.6,2.5,3.8,5.6,3.8,9.2c0,3.6-1.3,6.6-3.8,9.2c-2.6,2.5-5.6,3.8-9.2,3.8C266,63.5,262.9,62.3,260.4,59.8z M257.8,164.5V82.7  c0-0.8,0.3-1.4,0.8-1.9c0.5-0.5,1.2-0.8,1.9-0.8h18.4c0.8,0,1.5,0.3,2,0.8c0.5,0.5,0.7,1.2,0.7,1.9v81.8c0,0.8-0.2,1.4-0.7,1.9  c-0.5,0.5-1.2,0.8-2,0.8h-18.4c-0.8,0-1.4-0.3-1.9-0.8S257.8,165.3,257.8,164.5z M294.3,96.6V82.7c0-0.8,0.2-1.4,0.7-1.9  c0.5-0.5,1.2-0.8,2-0.8h12.6V56c0-0.8,0.2-1.5,0.7-2c0.5-0.5,1.2-0.7,2-0.7h18.4c0.8,0,1.4,0.2,1.9,0.7c0.5,0.5,0.8,1.1,0.8,2v24  h12.6c0.8,0,1.4,0.3,1.9,0.8c0.5,0.5,0.8,1.2,0.8,1.9v13.9c0,0.8-0.3,1.4-0.8,1.9c-0.5,0.5-1.2,0.8-1.9,0.8h-12.6v65.2  c0,0.8-0.3,1.4-0.8,1.9c-0.5,0.5-1.2,0.8-1.9,0.8h-18.4c-0.8,0-1.5-0.3-2-0.8c-0.5-0.5-0.7-1.2-0.7-1.9V99.3h-12.6  c-0.8,0-1.5-0.3-2-0.8C294.6,98,294.3,97.3,294.3,96.6z M358.4,154.9c-0.5-0.5-0.7-1.1-0.7-1.7c0-0.6,0.2-1.2,0.7-1.9l7-9.8  c0.9-1.2,2.3-1.2,4,0.2c8.3,5.3,15.7,8,22,8c3.3,0,6-0.6,8.1-1.7c2.1-1.2,3.2-3,3.2-5.6c0-1.6-0.6-3.1-1.8-4.4  c-1.2-1.3-2.8-2.4-4.8-3.3s-4.3-1.8-6.8-2.7c-2.6-1-5.2-1.9-7.8-2.7c-2.7-0.9-5.3-2-7.8-3.5c-2.6-1.5-4.8-3.1-6.8-4.9  c-2-1.8-3.6-4.1-4.8-6.9c-1.2-2.8-1.8-6-1.8-9.5c0-8,3-14.5,9.1-19.3c6-4.8,13.2-7.2,21.5-7.2c5.7,0,11.3,1.2,16.7,3.5  c5.4,2.3,9.9,5.6,13.5,9.7c1,1.2,0.9,2.4-0.2,3.7l-6.9,8.9c-0.9,1.2-2.3,1.2-4-0.2c-3.9-2.5-7.1-4.2-9.4-5.3  c-2.3-1-4.9-1.5-7.9-1.5c-2.8,0-5.1,0.7-7,2.1c-1.8,1.4-2.8,3.2-2.8,5.4c0,1.9,0.8,3.5,2.4,4.9c1.6,1.4,3.6,2.5,6.2,3.4  c2.5,0.9,5.3,1.8,8.4,2.7c3,0.9,6.1,2,9.1,3.4c3,1.4,5.8,3,8.3,4.9c2.5,1.9,4.6,4.5,6.2,7.7c1.6,3.3,2.4,7.1,2.4,11.4  c0,5.4-1.7,10.2-5.1,14.3s-7.6,7.3-12.7,9.3c-5,2.1-10.3,3.1-15.9,3.1c-7,0-13.5-1.4-19.5-4.3C366.6,162.4,361.9,159,358.4,154.9z   M441,146.9c-3.6-7-5.5-14.7-5.5-23.1s1.8-16.1,5.5-23.1c3.7-7,8.8-12.5,15.3-16.5c6.5-4.1,13.9-6.1,21.9-6.1  c10.3,0,19.2,4.3,26.8,12.8l0.5-8.2c0.2-1.8,1.1-2.7,2.7-2.7H525c0.8,0,1.4,0.3,1.9,0.8c0.5,0.5,0.8,1.2,0.8,1.9v81.8  c0,0.8-0.3,1.4-0.8,1.9s-1.2,0.8-1.9,0.8h-16.5c-1.6,0-2.6-0.9-2.7-2.7L505,157c-7.2,8.3-16.1,12.5-26.7,12.5  c-8.1,0-15.4-2-21.9-6.1C449.9,159.3,444.7,153.8,441,146.9z M458.6,123.6c0,7.1,2.1,12.9,6.4,17.6c4.3,4.7,9.7,7,16.3,7  c6.4,0,11.7-2.4,16.1-7.3c4.3-4.8,6.5-10.6,6.5-17.3c0-6.7-2.2-12.3-6.5-17.1c-4.3-4.7-9.7-7.1-16.1-7.1c-6.6,0-12,2.3-16.3,6.9  C460.7,110.9,458.6,116.6,458.6,123.6z M543.9,164.5V40c0-0.8,0.3-1.5,0.8-2c0.5-0.5,1.2-0.7,1.9-0.7H565c0.8,0,1.4,0.2,1.9,0.7  c0.5,0.5,0.7,1.1,0.7,2v124.5c0,0.8-0.2,1.5-0.7,2s-1.1,0.7-1.9,0.7h-18.4c-0.8,0-1.4-0.3-1.9-0.8S543.9,165.3,543.9,164.5z   M586.9,59.8c-2.5-2.5-3.8-5.6-3.8-9.2c0-3.6,1.3-6.7,3.8-9.2c2.5-2.5,5.6-3.8,9.3-3.8c3.6,0,6.6,1.3,9.2,3.8  c2.6,2.5,3.8,5.6,3.8,9.2c0,3.6-1.3,6.6-3.8,9.2c-2.6,2.5-5.6,3.8-9.2,3.8C592.5,63.5,589.4,62.3,586.9,59.8z M584.3,164.5V82.7  c0-0.8,0.3-1.4,0.8-1.9c0.5-0.5,1.2-0.8,1.9-0.8h18.4c0.8,0,1.5,0.3,2,0.8c0.5,0.5,0.7,1.2,0.7,1.9v81.8c0,0.8-0.2,1.4-0.7,1.9  c-0.5,0.5-1.2,0.8-2,0.8h-18.4c-0.8,0-1.4-0.3-1.9-0.8C584.6,165.9,584.3,165.3,584.3,164.5z M620.3,83c-0.2-0.5-0.3-1-0.3-1.3  c0-1.2,0.8-1.7,2.5-1.7h18.6c1.6,0,2.6,0.7,3.2,2.2l21.6,57.7l21.5-57.7c0.5-1.4,1.6-2.2,3.3-2.2h18.6c1.6,0,2.4,0.6,2.4,1.7  c0,0.4-0.1,0.8-0.3,1.3l-32.9,82c-0.5,1.4-1.6,2.2-3.3,2.2h-18.4c-1.6,0-2.7-0.7-3.3-2.2L620.3,83z M713.5,123.8  c0-6.3,1.1-12.3,3.4-17.9c2.3-5.6,5.3-10.5,9.2-14.5c3.9-4.1,8.6-7.3,14.2-9.6c5.5-2.4,11.4-3.6,17.7-3.6c8.3,0,15.6,2,22.1,6  s11.4,9.3,14.8,15.9c3.4,6.6,5.1,13.9,5.1,21.8c0,3.8-0.4,6.5-1.2,8.1c-0.8,1.6-2.5,2.4-5,2.4h-56.6c1.2,5.8,3.9,10.2,8.3,13.4  c4.3,3.1,10,4.7,16.9,4.7c6.7,0,12.9-2,18.7-6c1.5-1,2.8-0.9,4,0.2l8,7.6c1.2,1.3,1.2,2.6-0.2,3.9c-4.3,4.2-9.3,7.5-14.9,9.9  c-5.7,2.3-11.6,3.5-17.9,3.5c-6.7,0-13-1.2-18.9-3.6c-5.8-2.4-10.8-5.6-14.8-9.7c-4-4.1-7.2-8.9-9.5-14.5  C714.7,136.1,713.5,130.1,713.5,123.8z M736.8,117H779c-0.8-6-3-10.6-6.9-14c-3.8-3.4-8.4-5-13.9-5c-5.5,0-10.2,1.7-14.1,5  C740.3,106.3,737.8,111,736.8,117z M72.2,201.6l-31.7,4.9c-3.7,0.7-7.3-1.7-8-5.3c-0.2-0.9-0.2-1.7,0-2.6l3.7-17.1  C14,162.6,0,134.6,0,103.4C0,46.3,46.9,0,104.7,0s104.7,46.3,104.7,103.4s-46.9,103.4-104.7,103.4  C93.3,206.7,82.4,204.9,72.2,201.6z M114.6,94.5l15.6-29.2c0.5-0.9,0.7-1.8,0.7-2.8c0-3.3-2.7-5.9-6-5.9h-38c-2.9,0-5.3,2-5.9,4.7  l-9.2,44.6c-0.1,0.4-0.1,0.8-0.1,1.2c0,3.3,2.7,5.9,6,5.9l11.2,0l2,32.8c0.1,1.7,1,3.3,2.3,4.4c2.6,2,6.4,1.5,8.4-1.1l34.9-45.1  c0.8-1,1.2-2.3,1.2-3.6c0-3.3-2.7-5.9-6-5.9H114.6z"></path></g></svg>