<svg xmlns="http://www.w3.org/2000/svg" xmlns:xlink="http://www.w3.org/1999/xlink" id="Layer_1" x="0px" y="0px" viewBox="0 0 800 332.9" style="enable-background:new 0 0 800 332.9;" xml:space="preserve"><style type="text/css">	.st0{fill:#EBEBEB;}	.st1{fill-rule:evenodd;clip-rule:evenodd;fill:#EBEBEB;}</style><g>	<path class="st0" d="M56.2,130.4c0-8.7,7.1-12,18.9-12c16.9,0,38.2,5.1,55.1,14.2V80.4c-18.4-7.3-36.7-10.2-55.1-10.2  C30,70.2,0,93.8,0,133.1c0,61.3,84.4,51.6,84.4,78c0,10.2-8.9,13.6-21.3,13.6c-18.4,0-42-7.6-60.7-17.8v52.9  c20.7,8.9,41.6,12.7,60.7,12.7c46.2,0,78-22.9,78-62.7C140.9,143.6,56.2,155.3,56.2,130.4z M206.4,25.8l-54.2,11.6l-0.2,178  c0,32.9,24.7,57.1,57.6,57.1c18.2,0,31.6-3.3,38.9-7.3V220c-7.1,2.9-42.2,13.1-42.2-19.8v-78.9h42.2V74h-42.2L206.4,25.8z   M317.6,90.4L314,74h-48v194.4h55.6V136.7c13.1-17.1,35.3-14,42.2-11.6V74C356.7,71.3,330.7,66.4,317.6,90.4z M377.3,74h55.8v194.4  h-55.8V74z M377.3,57.1l55.8-12V0l-55.8,11.8V57.1z M549.1,70.2c-21.8,0-35.8,10.2-43.6,17.3l-2.9-13.8h-48.9v259.1l55.6-11.8  l0.2-62.9c8,5.8,19.8,14,39.3,14c39.8,0,76-32,76-102.4C624.7,105.3,588,70.2,549.1,70.2z M535.8,223.3c-13.1,0-20.9-4.7-26.2-10.4  l-0.2-82.4c5.8-6.4,13.8-10.9,26.4-10.9c20.2,0,34.2,22.7,34.2,51.8C570,201.1,556.2,223.3,535.8,223.3z M800,172  c0-56.9-27.6-101.8-80.2-101.8c-52.9,0-84.9,44.9-84.9,101.3c0,66.9,37.8,100.7,92,100.7c26.4,0,46.4-6,61.6-14.4v-44.4  c-15.1,7.6-32.4,12.2-54.4,12.2c-21.6,0-40.7-7.6-43.1-33.8h108.7C799.6,188.9,800,177.3,800,172z M690.2,150.9  c0-25.1,15.3-35.6,29.3-35.6c13.6,0,28,10.4,28,35.6H690.2L690.2,150.9z"></path></g></svg>