<svg xmlns="http://www.w3.org/2000/svg" xmlns:xlink="http://www.w3.org/1999/xlink" id="Layer_1" x="0px" y="0px" viewBox="0 0 799.1 151.4" style="enable-background:new 0 0 799.1 151.4;" xml:space="preserve"><style type="text/css">	.st0{fill:#EBEBEB;}	.st1{fill-rule:evenodd;clip-rule:evenodd;fill:#EBEBEB;}</style><g>	<path class="st0" d="M102.5,15.3c-4-2.2-15.5-0.9-29.4,3.4C48.8,35.3,28.4,59.7,27,98.8c-0.3,0.9-2.6-0.1-3.1-0.4  c-6.5-12.5-9.1-25.7-3.7-44.8c1-1.7-2.3-3.8-2.9-3.2c-1.2,1.2-6.2,6.5-9.5,12.3C-8.7,91.3,2,127.9,30.8,143.9  c28.8,16,65.1,5.7,81.2-23.1C130.6,87.5,113.3,21.3,102.5,15.3L102.5,15.3z"></path>	<path class="st0" d="M205.5,31.2c-34.1,0-58.9,25.4-58.9,60.3c0,35.3,24.7,59.9,60.1,59.9c17.9,0,32-5.6,43.3-17.1  c3.4-3.6,3.7-7.1,3.7-8.5c0-5.7-4.2-9.8-10.1-9.8c-2.9,0-5.4,1.1-8.2,3.7c-6.4,5.9-14.8,12-28.7,12c-19.4,0-35.1-14.5-36.1-33.2  h77.1c8.4,0,12.5-3.9,12.5-12c0-2.4,0-4.1-0.5-7.5C255.5,49.1,235.3,31.2,205.5,31.2L205.5,31.2z M205.5,49.9  c18.5,0,30.4,11.8,31.1,30.8h-66C172.3,63.1,187.2,49.9,205.5,49.9L205.5,49.9z"></path>	<path class="st0" d="M333.8,31.2c-15.5,0-30.9,8.9-36.9,21.3v-7.7c0-11.9-9.2-12.5-11-12.5c-5.4,0-11.3,3.3-11.3,12.5v92.4  c0,12.3,9.8,12.9,11.7,12.9s11.7-0.6,11.7-12.9V87.7c0-21.6,12.2-36.6,29.7-36.6c16.9,0,25.2,11.1,25.2,34v52.2  c0,12.3,9.8,12.9,11.7,12.9s11.7-0.6,11.7-12.9V77.7C376.5,55.2,365.3,31.2,333.8,31.2L333.8,31.2z"></path>	<path class="st0" d="M482.7,32.4c-5.4,0-9.4,3.2-11.7,9.4l-32.1,80.8L407,41.8c-2.5-6.3-6.4-9.4-11.9-9.4  c-6.5,0-11.7,5.1-11.7,11.3c0,1.5,0.2,3.5,1.5,6.6l36.9,87.2c4.4,10.5,11.6,12.7,16.9,12.7c5.3,0,12.5-2.2,16.9-12.7l37.2-87.7  c1.3-3.1,1.5-5.3,1.5-6.4C494.2,37.1,489.3,32.4,482.7,32.4L482.7,32.4z"></path>	<path class="st0" d="M551,31.2c-15,0-29,4.2-39.4,11.8c-3.5,2.4-5.2,5.5-5.2,9.3c0,5.2,4,9.4,9.1,9.4c2.2,0,4.7-0.9,7-2.5  c8.9-5.9,17.3-8.7,26.4-8.7c17.4,0,27.3,8.8,27.3,24.2v2.6c-39,0-78.6,4.8-78.6,38.7c0,24.4,20.9,35.3,41.5,35.3  c16.5,0,29.6-6.5,38-18.9v5.9c0,8.8,5.9,12,11,12c1.1,0,10.5-0.3,10.5-12V76.1C598.7,48,580.9,31.2,551,31.2L551,31.2z M571.3,94.5  h4.9v5.4c0,19.8-12.6,32.6-32.1,32.6c-5.3,0-22.6-1.2-22.6-17.1C521.5,96.6,549.9,94.5,571.3,94.5L571.3,94.5z"></path>	<path class="st0" d="M659.9,53.7c10.3,0,10.8-8,10.8-9.6c0-4.8-2.8-9.8-10.8-9.8h-21.1V12.9c0-9.5-6.2-12.9-11.5-12.9  c-2,0-11.7,0.6-11.7,12.9v101.5c0,23.4,11.6,35.8,33.4,35.8c5.7,0,11.2-1,14.8-2.7c4.1-2.1,6.5-5.5,6.5-9.3c0-5.4-3.9-9.4-9.4-9.4  c-1,0-2.5,0.3-4.2,0.7c-2,0.5-3.4,0.7-4.9,0.7c-8.9,0-13-5.8-13-18.3V53.7L659.9,53.7L659.9,53.7z"></path>	<path class="st0" d="M737.5,31.2c-35.5,0-61.3,25.2-61.3,59.9c0,16.9,6.2,32.3,17.6,43.3c11.2,11,26.8,17,43.7,17  c35.1,0,61.5-25.9,61.5-60.3C799.1,56.4,773.2,31.2,737.5,31.2L737.5,31.2z M737.5,131.5c-24.4,0-37.1-20.3-37.1-40.4  c0-27.6,19.2-40.2,37.1-40.2c17.9,0,37.1,12.6,37.1,40.2C774.6,118.9,755.4,131.5,737.5,131.5L737.5,131.5z"></path></g></svg>