<svg xmlns="http://www.w3.org/2000/svg" xmlns:xlink="http://www.w3.org/1999/xlink" id="Layer_1" x="0px" y="0px" viewBox="0 0 800 184" style="enable-background:new 0 0 800 184;" xml:space="preserve"><style type="text/css">	.st0{fill:#EBEBEB;}	.st1{fill-rule:evenodd;clip-rule:evenodd;fill:#EBEBEB;}</style><g>	<g>		<path class="st0" d="M127,120.3c21.8-12,38.4-21.1,39.8-21.8c4.6-2.4,9.3-8.9,0-13.8c-3-1.6-19.1-10.4-39.8-21.8l-28.7,29   L127,120.3z"></path>		<path class="st0" d="M98.3,91.8L7,183.8c2.1,0.3,4.6-0.3,7.4-1.9c6-3.3,69.5-38,112.6-61.6L98.3,91.8z"></path>		<path class="st0" d="M98.3,91.8L127,63C127,63,20.8,5,14.4,1.6C12,0.2,9.3-0.3,6.8,0.2L98.3,91.8z"></path>		<path class="st0" d="M98.3,91.8L6.8,0.2C3.1,1,0,4.3,0,11c0,10.7,0,153.1,0,162c0,6.1,2.4,10.6,7,11L98.3,91.8z"></path>	</g>	<path class="st0" d="M396.1,73.5c-16.4,0-30,12.7-30,30.1c0,17.3,13.4,30.1,30,30.1s30-12.7,30-30.1S412.7,73.5,396.1,73.5z   M396.1,121.7c-9,0-16.8-7.6-16.8-18.3c0-10.8,7.9-18.3,16.8-18.3s16.8,7.4,16.8,18.3C413,114.2,405.1,121.7,396.1,121.7z   M330.9,73.5c-16.6,0-30,12.7-30,30.1c0,17.3,13.4,30.1,30,30.1c16.6,0,30-12.7,30-30.1S347.5,73.5,330.9,73.5z M330.9,121.7  c-9,0-16.8-7.6-16.8-18.3c0-10.8,7.9-18.3,16.8-18.3c9,0,16.8,7.4,16.8,18.3C347.8,114.2,340.1,121.7,330.9,121.7L330.9,121.7z   M253.4,82.8v12.7h30.3c-0.9,7.1-3.3,12.4-6.8,16c-4.4,4.4-11.3,9.3-23.4,9.3c-18.7,0-33.1-15.1-33.1-33.8s14.4-34.1,33.1-34.1  c10.1,0,17.4,4,22.8,9.1l9-9c-7.6-7.3-17.7-12.8-31.8-12.8c-25.5,0-47,21-47,46.5s21.4,46.5,47,46.5c13.8,0,24.1-4.6,32.4-13.1  c8.4-8.4,11-20.3,11-29.8c0-3-0.3-5.7-0.7-8L253.4,82.8z M570.5,92.6c-2.4-6.7-10.1-19.1-25.5-19.1c-15.4,0-28.1,12.1-28.1,30.1  c0,16.8,12.7,30.1,29.5,30.1c13.7,0,21.5-8.4,24.8-13.3l-10.1-6.8c-3.4,5-8,8.3-14.7,8.3c-6.7,0-11.4-3-14.4-9.1L571.8,96  L570.5,92.6z M530,102.8c-0.3-11.6,9-17.6,15.6-17.6c5.3,0,9.6,2.6,11.1,6.4L530,102.8z M497.6,131.7h13.1V43.5h-13.1V131.7z   M476.2,80.2h-0.4c-3-3.6-8.6-6.7-15.7-6.7c-15,0-28.5,13.3-28.5,30.1s13.7,30,28.5,30c7.1,0,12.7-3.1,15.7-6.8h0.4v4.3  c0,11.6-6.1,17.7-16,17.7c-8,0-13-5.8-15-10.7l-11.4,4.9c3.3,8,12,17.8,26.4,17.8c15.4,0,28.4-9.1,28.4-31.3V75.4h-12.4V80.2  L476.2,80.2z M461.2,121.7c-9,0-16.6-7.6-16.6-18.1c0-10.6,7.6-18.3,16.6-18.3c8.9,0,16,7.7,16,18.3  C477.2,114,470.1,121.7,461.2,121.7z M631.7,43.5h-31.4v88.2h13.1V98.3h18.3c14.6,0,28.8-10.6,28.8-27.4S646.3,43.5,631.7,43.5z   M632.2,86.1h-18.6V55.8h18.6c9.7,0,15.4,8.1,15.4,15.1C647.4,77.8,641.9,86.1,632.2,86.1L632.2,86.1z M712.9,73.4  c-9.4,0-19.3,4.1-23.3,13.6l11.6,4.9c2.6-4.9,7.1-6.4,12-6.4c6.8,0,13.7,4.1,13.8,11.4v0.9c-2.4-1.4-7.4-3.4-13.7-3.4  c-12.6,0-25.3,7-25.3,19.8c0,11.8,10.3,19.4,21.7,19.4c8.9,0,13.7-4,16.7-8.7h0.4v6.8h12.7V97.8C739.5,82.2,727.9,73.4,712.9,73.4z   M711.4,121.6c-4.3,0-10.3-2.1-10.3-7.4c0-6.8,7.4-9.4,13.8-9.4c5.7,0,8.4,1.3,12,3C725.9,115.9,718.9,121.6,711.4,121.6z   M785.4,75.4l-15,38.1H770l-15.6-38.1h-14.1l23.4,53.4l-13.3,29.8h13.7L800,75.4H785.4z M667.9,131.7H681V43.5h-13.1V131.7z"></path></g></svg>