<svg xmlns="http://www.w3.org/2000/svg" xmlns:xlink="http://www.w3.org/1999/xlink" id="Layer_1" x="0px" y="0px" viewBox="0 0 799.6 237.3" style="enable-background:new 0 0 799.6 237.3;" xml:space="preserve"><style type="text/css">	.st0{fill:#EBEBEB;}	.st1{fill-rule:evenodd;clip-rule:evenodd;fill:#EBEBEB;}</style><g>	<path class="st0" d="M218.6,150.7c-13,0-25.2-5.5-36.3-14.5l2.7-12.7l0.1-0.5c2.4-13.5,10-36.1,33.4-36.1  c17.6,0,31.9,14.3,31.9,31.9C250.4,136.5,236.1,150.7,218.6,150.7L218.6,150.7z M218.6,54.8c-29.9,0-53.1,19.4-62.5,51.4  c-14.4-21.6-25.3-47.6-31.7-69.4H92.2v83.8c0,16.5-13.5,30-30,30s-30-13.5-30-30V36.8H0v83.8c-0.1,34.3,27.8,62.5,62.1,62.5  s62.3-28.2,62.3-62.5v-14.1c6.3,13.1,13.9,26.2,23.3,38l-19.7,92.8h33l14.3-67.3c12.5,8,26.9,13.1,43.5,13.1  c35.3,0,64.1-28.9,64.1-64.2C282.7,83.6,253.9,54.8,218.6,54.8L218.6,54.8z"></path>	<path class="st0" d="M381,58.4l20.8,83.8l22.9-83.8H452l-35.2,121.1h-27.3l-21.6-84.3l-21.6,84.3h-27.3L283.9,58.4h27.3l22.9,83.8  l20.8-83.8L381,58.4L381,58.4z M517.3,54.8c-35.4,0-64.1,28.8-64.1,64.1c0,35.4,28.8,64.1,64.1,64.1c35.4,0,64.2-28.7,64.2-64.1  S552.7,54.8,517.3,54.8z M517.3,156.7c-20.8,0-37.7-16.9-37.7-37.7s16.9-37.7,37.7-37.7c20.8,0,37.7,16.9,37.7,37.7  C555,139.8,538.2,156.7,517.3,156.7z M659.4,85.6c-18.3,0-33.1,14.9-33.1,33.1v60.8h-27.5V58.4h27.5v18.6c0,0,11.7-18.7,35.8-18.7  h8.4v27.2H659.4z M751.6,114.3c19.5-11,32.7-31.9,32.7-55.9h-27.5c0,20.2-16.4,36.6-36.6,36.6h-3.7V0h-27.5v179.5h27.5v-57h3.3  c2.7,0,6.2,1.8,7.8,3.9l39,53.1h32.9L751.6,114.3z"></path></g></svg>