<svg xmlns="http://www.w3.org/2000/svg" xmlns:xlink="http://www.w3.org/1999/xlink" id="Layer_1" x="0px" y="0px" viewBox="0 0 800 154.8" style="enable-background:new 0 0 800 154.8;" xml:space="preserve"><style type="text/css">	.st0{fill:#EBEBEB;}	.st1{fill-rule:evenodd;clip-rule:evenodd;fill:#EBEBEB;}</style><g>	<path class="st0" d="M128.1,0c14.5,2.5,28.3,6.9,41.3,13c22.6,33.8,33.9,71.9,29.7,115.9c-17.3,12.9-34.1,20.8-50.6,25.9  c-4.1-5.6-7.7-11.6-10.8-17.8c6-2.3,11.7-5.1,17.1-8.3c-1.4-1.1-2.8-2.2-4.2-3.3c-32.5,15.4-68.3,15.4-101.2,0  c-1.4,1.1-2.8,2.2-4.2,3.3c5.4,3.2,11.1,6,17.1,8.3c-3.1,6.3-6.8,12.2-10.8,17.8c-16.5-5.1-33.3-13-50.6-25.9  C-2.7,90.9,4.4,52.4,30.5,13C43.4,6.9,57.3,2.5,71.8,0c1.8,3.2,3.9,7.5,5.3,11c15.1-2.3,30.3-2.3,45.7,0  C124.3,7.5,126.4,3.2,128.1,0z M524.9,49.5c11,0,20.1,2.4,27.4,7.1v20.6c-2.6-1.8-5.6-3.3-9-4.4s-7.1-1.7-11-1.7  c-6.8,0-12.2,1.3-16,3.8c-3.9,2.6-5.8,5.9-5.8,10c0,4,1.9,7.4,5.6,10c3.7,2.6,9.2,3.9,16.3,3.9c3.7,0,7.3-0.5,10.9-1.6  c3.6-1.1,6.6-2.4,9.2-4v19.9c-8.1,4.9-17.4,7.4-28.1,7.4c-9,0-16.6-1.6-22.9-4.8c-6.3-3.1-11.1-7.4-14.2-12.8  c-3.2-5.4-4.8-11.5-4.8-18.2c0-6.7,1.7-12.8,5-18.1c3.3-5.3,8.1-9.5,14.5-12.5C508.4,51,516,49.5,524.9,49.5z M442.2,49.5  c6.2,0,11.8,0.7,17,2c5.1,1.3,9.4,3.1,12.8,5.2v17.7c-3.5-2.1-7.4-3.8-12-5c-4.5-1.2-9.2-1.8-13.9-1.8c-6.9,0-10.3,1.2-10.3,3.6  c0,1.1,0.5,2,1.6,2.5c1.1,0.6,3,1.1,5.9,1.8l11,2c7.2,1.3,12.6,3.5,16.1,6.7c3.5,3.2,5.3,7.9,5.3,14.1c0,6.8-2.9,12.2-8.7,16.3  c-5.8,4-14.1,6-24.8,6c-6.3,0-12.4-0.8-18.4-2.4s-11.3-3.9-16.1-6.9V92.6c3.6,2.8,8.4,5.2,14.5,7c6.1,1.8,11.9,2.7,17.6,2.7  c2.6,0,4.6-0.4,6-1.1c1.4-0.7,2-1.6,2-2.5c0-1.1-0.4-2.1-1.1-2.8c-0.7-0.8-2.2-1.4-4.3-1.9L429,91c-7.6-1.8-12.9-4.3-16.1-7.5  c-3.2-3.2-4.8-7.4-4.8-12.5c0-4.4,1.4-8.1,4.2-11.4c2.8-3.2,6.7-5.7,11.9-7.5C429.3,50.4,435.3,49.5,442.2,49.5z M800,37.2v81h-27  v-14.7c-2.3,5.5-5.7,9.8-10.4,12.7c-4.7,2.9-10.4,4.3-17.2,4.3c-6.1,0-11.4-1.5-16-4.5c-4.5-3-8.1-7.2-10.5-12.5  c-2.5-5.3-3.7-11.3-3.7-17.9c-0.1-6.9,1.2-13.1,3.9-18.6c2.7-5.5,6.5-9.8,11.3-12.8c4.9-3.1,10.4-4.6,16.7-4.6  c12.6,0,21.2,5.5,25.6,16.5l0.2,0.6l0-29.3H800z M602.3,49.5c8.7,0,16.3,1.5,22.6,4.5c6.3,3,11.1,7.1,14.4,12.4  c3.3,5.3,5,11.3,5,18.1c0,6.7-1.7,12.9-5,18.3c-3.3,5.5-8.1,9.8-14.5,12.9c-6.4,3.1-13.9,4.7-22.5,4.7c-8.7,0-16.2-1.6-22.5-4.7  c-6.4-3.1-11.2-7.5-14.5-12.9c-3.3-5.5-5-11.6-5-18.3c0-6.7,1.7-12.8,5-18.1c3.3-5.3,8.2-9.4,14.5-12.4  C586,51,593.6,49.5,602.3,49.5z M395.5,67.9v50.6h-26.9V67.9C376.8,71.5,387.1,71.7,395.5,67.9z M700.4,51c3.9,0,7.2,0.9,10,2.7  v24.3c-2.8-1.9-6.4-2.8-10.9-2.8c-5.9,0-10.4,1.8-13.5,5.4c-3.2,3.6-4.7,9.3-4.7,16.9v20.7h-27V52.4h26.4v20.9  c1.5-7.6,3.8-13.3,7.1-16.9C691,52.8,695.2,51,700.4,51z M311.6,39.5c10.4,0,19.1,1.7,26.3,4.9c7.2,3.3,12.5,7.9,16.1,13.8  c3.6,5.9,5.3,12.6,5.3,20.2c0,7.4-1.9,14.2-5.6,20.2c-3.7,6-9.4,10.8-17,14.3c-7.6,3.5-17,5.3-28.2,5.3h-39.9V39.5H311.6z   M66.8,64.6c-10,0-18,9.2-18,20.5s8.1,20.4,18,20.4c10,0,18-9.2,18-20.4C84.9,73.8,76.8,64.6,66.8,64.6z M133.2,64.6  c-10,0-18,9.2-18,20.5s8.1,20.4,18,20.4c10,0,18-9.2,18-20.4C151.3,73.8,143.2,64.6,133.2,64.6z M602.3,70.2c-4.7,0-8.4,1.3-11.1,4  c-2.7,2.7-4,6.2-4,10.7c0,4.5,1.3,8.1,4,10.8c2.7,2.7,6.4,4.1,11.1,4.1c4.6,0,8.3-1.4,10.9-4.1c2.7-2.7,4-6.3,4-10.8  c0-4.5-1.3-8.1-4-10.7C610.6,71.5,606.9,70.2,602.3,70.2z M758.2,70.5c-4.5,0-8.2,1.3-10.9,4c-2.7,2.7-4.1,6.1-4.1,10.4  c0,4.3,1.4,7.8,4.1,10.5c2.7,2.7,6.3,4,10.8,4c4.5,0,8.2-1.4,10.9-4.1c2.8-2.7,4.1-6.3,4.1-10.6c0-4.2-1.3-7.6-4-10.2  C766.4,71.9,762.8,70.5,758.2,70.5z M309.7,59.5h-13.4v38.7h11.9c7,0,12.3-1.8,16.1-5.3c3.7-3.6,5.6-8.4,5.6-14.6  c0-5.7-1.7-10.2-5-13.7C321.5,61.2,316.4,59.5,309.7,59.5z M382,34.7c7.4,0,13.4,5.5,13.4,12.3c0,6.8-6,12.3-13.4,12.3  c-7.4,0-13.4-5.5-13.4-12.3C368.6,40.3,374.6,34.7,382,34.7z"></path></g></svg>