<svg xmlns="http://www.w3.org/2000/svg" xmlns:xlink="http://www.w3.org/1999/xlink" id="Layer_1" x="0px" y="0px" viewBox="0 0 800 214.9" style="enable-background:new 0 0 800 214.9;" xml:space="preserve"><style type="text/css">	.st0{fill:#EBEBEB;}	.st1{fill-rule:evenodd;clip-rule:evenodd;fill:#EBEBEB;}</style><g>	<path class="st0" d="M532.3,0v156.6c19.3,0.9,38.6,2,57.8,3.3V193c-30.4-2-60.9-3.6-91.5-4.6V0H532.3z M800,0l-43.9,101.7  L800,214.9l0,0c-12.8-1.8-25.6-3.5-38.4-5.2l-24.6-63.5L712,203.8c-11.8-1.3-23.6-2.5-35.4-3.7l42.8-99.1L680.2,0h36.4l21.9,56.5  L763,0H800z M383,186.8L383,0h94v33.5h-60.4v43.4h45.7v33.2h-45.7v76.6L383,186.8z M257.2,33.5l0-33.5h104.2v33.5h-35.3v154.2  c-11.2,0.3-22.5,0.6-33.7,1.1V33.5H257.2z M142,198.4V0h93.6v33.5h-59.9v45.4c13.8-0.2,33.3-0.4,45.5-0.3v33.2  c-15.2-0.2-32.4,0.2-45.5,0.3v50.3c19.9-1.6,39.9-2.9,59.9-4.1v33.2C204.2,193.2,173,195.6,142,198.4z M75.9,121.6L75.9,0h33.7  v201.5c-12.3,1.3-24.6,2.6-36.9,4l-39-112.1v116.9c-11.3,1.5-22.5,3-33.7,4.6V0h32L75.9,121.6z M617.9,195L617.9,195V0h33.7v197.8  C640.3,196.8,629.1,195.9,617.9,195z"></path></g></svg>