<svg xmlns="http://www.w3.org/2000/svg" xmlns:xlink="http://www.w3.org/1999/xlink" id="Layer_1" x="0px" y="0px" viewBox="0 0 800 137.3" style="enable-background:new 0 0 800 137.3;" xml:space="preserve"><style type="text/css">	.st0{fill:#EBEBEB;}	.st1{fill-rule:evenodd;clip-rule:evenodd;fill:#EBEBEB;}</style><g>	<path class="st1" d="M9.2,45c-12.3,12.3-12.3,32.3,0,44.6L45,125.3c12.3,12.3,32.3,12.3,44.6,0l35.7-35.7  c12.3-12.3,12.3-32.3,0-44.6L89.6,9.2C77.3-3.1,57.3-3.1,45,9.2L9.2,45z M82.9,82.9c8.6-8.6,8.6-22.6,0-31.3  c-8.6-8.6-22.6-8.6-31.3,0c-8.6,8.6-8.6,22.6,0,31.3C60.3,91.5,74.3,91.5,82.9,82.9L82.9,82.9z"></path>	<path class="st1" d="M187.8,91.2c0.1-9.9,6.1-15.8,14.9-15.8c8.7,0,13.8,5.6,13.8,15.1v45.3h21.4V86.6c0-18.1-10.6-29-26.7-29  c-11.7,0-19.5,5.5-23.1,14.6h-0.9V32.9h-20.8v102.9h21.4V91.2L187.8,91.2z M271,137.2c11.4,0,18.8-5,22.6-12.2h0.6v10.7h20.3v-52  c0-18.4-15.6-26.1-32.7-26.1c-18.5,0-30.6,8.8-33.6,22.9l19.8,1.6c1.5-5.1,6-8.9,13.7-8.9c7.3,0,11.5,3.7,11.5,10v0.3  c0,5-5.3,5.6-18.7,6.9c-15.3,1.4-29,6.5-29,23.8C245.4,129.5,256.3,137.2,271,137.2L271,137.2z M277.1,122.4  c-6.6,0-11.3-3.1-11.3-8.9c0-6,5-9,12.5-10c4.7-0.7,12.3-1.8,14.9-3.5v8.2C293.2,116.3,286.5,122.4,277.1,122.4z M389.6,80.6  c-1.9-14.2-13.4-23-32.8-23c-19.7,0-32.7,9.1-32.7,24c-0.1,11.6,7.2,19,22.3,22l13.4,2.7c6.7,1.4,9.8,3.8,9.9,7.7  c-0.1,4.6-5.1,7.8-12.6,7.8c-7.6,0-12.7-3.3-14-9.5l-21,1.1c2,14.8,14.6,23.9,35,23.9c20,0,34.3-10.2,34.4-25.4  C391.3,100.7,384,94,369,91l-14-2.8c-7.2-1.6-9.8-4-9.8-7.7c-0.1-4.6,5.2-7.6,11.8-7.6c7.4,0,11.9,4.1,12.9,9L389.6,80.6  L389.6,80.6z M420.5,91.2c0.1-9.9,6.1-15.8,14.9-15.8c8.7,0,13.8,5.6,13.8,15.1v45.3h21.4V86.6c0-18.1-10.6-29-26.7-29  c-11.7,0-19.5,5.5-23.1,14.6h-0.9V32.9h-20.8v102.9h21.4V91.2z M503.1,91.2c0.1-9.9,6-15.8,14.6-15.8c8.6,0,13.8,5.6,13.7,15.1  v45.3h21.4V86.6c0-18-10.5-29-26.6-29c-11.5,0-19.7,5.6-23.2,14.6h-0.9V58.6h-20.4v77.1h21.4V91.2z M598.9,137.3  c23.4,0,38-16,38-39.8c0-23.9-14.6-39.9-38-39.9c-23.4,0-38,16-38,39.9C561,121.2,575.5,137.3,598.9,137.3z M599,120.7  c-10.8,0-16.3-9.9-16.3-23.4s5.5-23.4,16.3-23.4c10.6,0,16.1,9.9,16.1,23.4C615.2,110.8,609.6,120.7,599,120.7z M673.6,137  c12.5,0,18.9-7.2,21.9-13.6h0.9v12.4h21.1V32.9h-21.3v38.7h-0.7c-2.9-6.3-9-14-21.9-14c-16.9,0-31.2,13.2-31.2,39.7  C642.3,123.1,656,137,673.6,137z M680.4,120c-10.5,0-16.2-9.3-16.2-22.8c0-13.4,5.6-22.6,16.2-22.6c10.4,0,16.2,8.8,16.2,22.6  C696.6,110.9,690.7,120,680.4,120L680.4,120z M764.6,137.3c19.1,0,31.9-9.3,35-23.6l-19.8-1.3c-2.2,5.9-7.7,8.9-14.8,8.9  c-10.7,0-17.5-7.1-17.5-18.6v-0.1H800v-5.9c0-26.2-15.9-39.2-36.3-39.2c-22.7,0-37.4,16.1-37.4,39.9  C726.3,122,740.8,137.3,764.6,137.3L764.6,137.3z M747.5,89.4c0.5-8.8,7.1-15.8,16.6-15.8c9.3,0,15.7,6.6,15.8,15.8H747.5z"></path></g></svg>