<svg xmlns="http://www.w3.org/2000/svg" xmlns:xlink="http://www.w3.org/1999/xlink" id="Layer_1" x="0px" y="0px" viewBox="0 0 797.2 450.1" style="enable-background:new 0 0 797.2 450.1;" xml:space="preserve"><style type="text/css">	.st0{fill:#EBEBEB;}	.st1{fill-rule:evenodd;clip-rule:evenodd;fill:#EBEBEB;}</style><g>	<path class="st0" d="M343.7,254.6L339,84.4c0-5.3-4.4-9.3-9.3-9.3c-5.3,0-9.3,4-9.3,9.3L316,254.6l4.4,81.9c0,5.3,4.4,9.3,9.3,9.3  c5.3,0,9.3-4,9.3-9.3L343.7,254.6z"></path>	<path class="st0" d="M310,254.6l-5.3-176.8c0-5-4-8.7-8.7-8.7c-4.7,0-8.7,3.7-8.7,8.7l-4.7,176.5l4.7,82.5c0,5,4,8.7,8.7,8.7  c4.7,0,8.7-3.7,8.7-8.7L310,254.6z"></path>	<path class="st0" d="M237.5,79.1c-0.3-4-3.4-7.5-7.5-7.5c-4,0-7.2,3.1-7.5,7.5l-5.3,175.3l5.3,83.7c0,4,3.4,7.2,7.5,7.2  c4,0,7.2-3.1,7.5-7.5l6.2-83.7L237.5,79.1z"></path>	<path class="st0" d="M271.1,73.2c0-4.4-3.7-8.1-8.1-8.1c-4.4,0-8.1,3.4-8.1,8.1l-5,181.2l5,83.1c0,4.4,3.7,8.1,8.1,8.1  c4.4,0,7.8-3.4,8.1-8.1l5.6-83.1L271.1,73.2z"></path>	<path class="st0" d="M101.5,343.3c2.5,0,4.4-1.9,4.7-4.7l8.1-84.4l-8.1-87.2c-0.3-2.5-2.2-4.7-4.7-4.7s-4.4,1.9-4.7,4.7l-7.2,87.2  l7.2,84.4C96.8,341.5,99,343.3,101.5,343.3z"></path>	<path class="st0" d="M377.6,254.6l-4.4-202.3c0-3.4-1.9-6.5-4.7-8.4C367,43,365.1,42,363,42c-1.9,0-3.7,0.6-5.6,1.6  c-2.8,1.9-4.7,5-4.7,8.4v1.9l-3.7,200.5l3.7,81.2v0.3c0,2.2,0.9,4.4,2.5,5.9c1.9,2.2,4.7,3.7,7.8,3.7c2.8,0,5.3-1.2,7.2-2.8  c1.9-1.9,3.1-4.4,3.1-7.2l0.3-8.1L377.6,254.6z"></path>	<path class="st0" d="M138.5,173.4c-0.3-3.1-2.5-5.3-5.3-5.3c-2.8,0-5.3,2.2-5.3,5.3l-6.5,80.9l6.5,85c0.3,3.1,2.5,5.3,5.3,5.3  c2.8,0,5.3-2.2,5.3-5.3l7.5-85L138.5,173.4z"></path>	<path class="st0" d="M165.3,116.7c-3.1,0-5.9,2.5-5.9,5.9l-6.2,131.7l6.2,85c0.3,3.4,2.8,5.9,5.9,5.9c3.1,0,5.9-2.5,5.9-5.9l7.2-85  l-7.2-131.7C171.2,119.5,168.4,116.7,165.3,116.7z"></path>	<path class="st0" d="M203.9,339.3l6.5-84.7l-6.5-161.9c-0.3-3.7-3.1-6.5-6.8-6.5c-3.7,0-6.5,2.8-6.8,6.5l-5.9,161.9l5.9,84.7  c0,3.7,3.1,6.5,6.8,6.5C200.8,346.1,203.6,343,203.9,339.3z"></path>	<path class="st0" d="M402.2,24.6c-1.6-0.9-3.4-1.6-5.6-1.6c-2.5,0-5,0.9-6.8,2.5c-2.5,1.9-4,5-4,8.4v1.2l-4.4,219.8l2.2,40.5  l2.2,39.5c0,5.9,5,10.6,10.9,10.6c5.9,0,10.6-5,10.9-10.9l4.7-80l-4.7-220.7C407.2,29.9,405.3,26.5,402.2,24.6z"></path>	<path class="st0" d="M9,301c1.6,0,2.8-1.2,3.1-3.1l6.8-43.6l-6.8-44.2c-0.3-1.9-1.6-3.1-3.1-3.1s-3.1,1.2-3.1,3.1L0,254.3l5.9,43.6  C5.9,299.8,7.5,301,9,301z"></path>	<path class="st0" d="M38.6,327.5c1.6,0,3.1-1.2,3.4-3.1l9-70l-9-71.6c-0.3-1.9-1.6-3.1-3.4-3.1c-1.6,0-3.1,1.2-3.4,3.1l-7.8,71.6  l7.8,70C35.5,326.2,36.7,327.5,38.6,327.5z"></path>	<path class="st0" d="M69.7,340.2c2.2,0,3.7-1.6,4-4l8.4-81.9l-8.4-85c-0.3-2.2-1.9-4-4-4c-2.2,0-3.7,1.6-4,4l-7.5,85l7.5,81.9  C66,338.4,67.5,340.2,69.7,340.2z"></path>	<path class="st0" d="M698.8,150c-13.4,0-26.1,2.8-38,7.5C653.1,69.4,579,0,488.7,0c-22.1,0-43.6,4.4-62.6,11.8  c-7.5,2.8-9.3,5.9-9.3,11.5v311c0,5.9,4.7,10.6,10.6,11.2h271.8c54.2,0,98.1-43.3,98.1-97.4C796.9,193.9,753,150,698.8,150z"></path>	<path class="st0" d="M78.1,404.7c-11.5-2.8-14.6-4-14.6-8.7c0-3.1,2.5-6.5,10.3-6.5c6.5,0,11.8,2.8,16.5,7.5l10.6-10.3  c-6.8-7.2-15.3-11.5-26.5-11.5c-14.3,0-25.8,8.1-25.8,21.2c0,14.3,9.3,18.7,22.7,21.5c13.7,3.1,16.2,5.3,16.2,10  c0,5.6-4,7.8-12.8,7.8c-6.8,0-13.4-2.5-18.7-8.4l-10.6,9.3c5.6,8.1,16.2,13.1,28,13.1c19.9,0,28.3-9.3,28.3-23  C102.4,411.2,89.6,407.2,78.1,404.7z M145.1,375.4c-19.9,0-31.4,15.3-31.4,37.4s11.8,37.4,31.4,37.4s31.4-15.3,31.4-37.4  S164.7,375.4,145.1,375.4z M145.1,435.5c-11.8,0-16.5-10-16.5-23s5-23,16.5-23c11.8,0,16.5,10,16.5,23S156.6,435.5,145.1,435.5z   M235,417.1c0,11.5-5.6,18.7-14.9,18.7c-9.3,0-14.9-7.5-14.9-19v-40.5h-14.6v40.8c0,21.2,11.8,33,29.3,33c18.4,0,29.3-12.1,29.3-33  v-40.5h-14.6v40.5H235z M311.9,407.2c0,4,0.3,13.1,0.3,15.9c-0.9-1.9-3.4-5.6-5-8.1l-25.8-38.3h-14v72.5h14.3v-32.1  c0-4-0.3-13.1-0.3-15.9c0.9,1.9,3.4,5.6,5,8.1l26.5,39.5h13.1v-72.5h-14.3v30.8H311.9z M367.6,376.3h-22.7v72.5h21.5  c18.7,0,37-10.9,37-36.1C403.4,386,388.2,376.3,367.6,376.3z M366.4,434.9h-7.2v-44.2h7.8c15.3,0,21.8,7.5,21.8,22.1  C388.8,425.8,381.6,434.9,366.4,434.9z M448.2,389.7c6.5,0,10.6,2.8,13.4,7.8l13.4-6.2c-4.7-9.3-12.8-16.2-26.5-16.2  c-19,0-32.1,15.3-32.1,37.4c0,22.7,12.8,37.4,31.8,37.4c13.1,0,21.8-6.2,26.8-16.5l-12.1-7.2c-3.7,6.5-7.8,9.3-14.3,9.3  c-10.9,0-17.1-10-17.1-23C431.4,399.1,437.7,389.7,448.2,389.7z M502.1,376.3h-14.6v72.5h43.6v-14.3h-28.9V376.3z M569.3,375.4  c-19.9,0-31.4,15.3-31.4,37.4s11.8,37.4,31.4,37.4c19.9,0,31.4-15.3,31.4-37.4S589.3,375.4,569.3,375.4z M569.3,435.5  c-11.8,0-16.5-10-16.5-23s5-23,16.5-23c11.8,0,16.5,10,16.5,23S581.2,435.5,569.3,435.5z M659.3,417.1c0,11.5-5.6,18.7-14.9,18.7  s-14.9-7.5-14.9-19v-40.5h-14.6v40.8c0,21.2,11.8,33,29.3,33c18.4,0,29.3-12.1,29.3-33v-40.5h-14.6v40.5H659.3z M714.7,376.3H692  v72.5h21.5c18.7,0,37-10.9,37-36.1C750.5,386,735.3,376.3,714.7,376.3z M713.5,434.9h-6.8v-44.2h7.8c15.3,0,21.5,7.5,21.5,22.1  C735.9,425.8,728.7,434.9,713.5,434.9z"></path></g></svg>