<svg xmlns="http://www.w3.org/2000/svg" xmlns:xlink="http://www.w3.org/1999/xlink" id="Layer_1" x="0px" y="0px" viewBox="0 0 799.1 371.9" style="enable-background:new 0 0 799.1 371.9;" xml:space="preserve"><style type="text/css">	.st0{fill:#EBEBEB;}	.st1{fill-rule:evenodd;clip-rule:evenodd;fill:#EBEBEB;}</style><g>	<path class="st0" d="M786.4,341.6c6.9,0,12.5,5.5,12.7,12.4c0,6.8-5.5,12.4-12.3,12.4s-12.4-5.4-12.5-12.3  C774.1,347.3,779.6,341.7,786.4,341.6z M786.5,344.1c-5.5,0-9.9,4.4-10,9.9c0,5.2,4,9.6,9.2,10l0.7,0l0.8,0  c2.1-0.1,4.1-0.9,5.7-2.3l0.6-0.5c1.9-1.9,3-4.4,2.9-7.1C796.4,348.5,792,344.1,786.5,344.1z M781.8,347.8h5.3  c2.7,0,4.4,1.3,4.7,3.5l0,0.5c0.1,1.6-0.7,3-2.1,3.7l-0.4,0.2l2.9,4.2H789l-2.6-3.8h-2.1v3.7h-2.6V347.8h5.3H781.8z M787,350.1  h-2.6v3.5h2.7v-0.1c1.4,0,2.1-0.5,2.1-1.6c0-1.1-0.7-1.6-1.7-1.8L787,350.1z"></path>	<path class="st0" d="M336.1,200.3V299c-0.5,13.6,6.6,26.4,18.3,33.4c11.7,7,26.3,7,38.1,0c11.4-6.7,18.3-19,18.3-32.1l0-1.3v-98.8  h36v96.5c0.6,26.6-13.2,51.5-36.1,65c-22.9,13.5-51.4,13.5-74.4,0c-22.5-13.2-36.2-37.4-36.2-63.4l0-1.6v-96.5H336.1z M187.4,200.3  l1.5,0h92.9v34.4h-93c-7,0-12.7,5.7-12.7,12.7c0,7.7,4.6,12.5,13.8,14.2l1,0.2l57.2,8.5c29.9,4.6,42.9,27.2,42.9,48.9  c-0.1,12.9-5.5,25.2-14.8,34.2c-9,8.6-20.9,13.3-33.3,13.3l-1.5,0h-95.7v-3.1c0-20.2,13.9-30.8,27.3-31.5l0.9,0h67.6  c7,0,12.7-5.7,12.7-12.7c0-7.7-4.6-12.5-13.8-14.2l-1-0.2l-57.2-8.5c-29.9-4.6-42.9-27.1-42.9-48.9c0.2-12.9,5.6-25.1,14.9-34  C163.1,205,175,200.3,187.4,200.3L187.4,200.3z M505.5,200.3l1.5,0h92.8v34.4h-93c-7,0-12.7,5.7-12.7,12.7  c0,7.7,4.6,12.5,13.8,14.2l1,0.2l57.2,8.5c30,4.6,43.1,27.2,43.1,48.9c-0.2,12.9-5.5,25.2-14.9,34.2c-9,8.6-20.9,13.3-33.3,13.3  l-1.5,0H467V332h92.7c7,0,12.7-5.7,12.7-12.7c0-7.7-4.6-12.5-13.8-14.2l-1-0.2l-57.2-8.5c-29.9-4.6-43-27.1-43-48.9  c0.2-12.9,5.6-25.1,14.9-34C481.2,205,493.2,200.3,505.5,200.3L505.5,200.3z M666.9,200.2l1.5,0h100.5v3  c0,20.2-13.9,30.8-27.4,31.5l-0.9,0h-72.4c-6.8,0-12.3,5.3-12.7,11.9l0,0.7V279c3.9-6.5,10.8-10.5,18.3-10.8l1,0h75.4  c-4.9,19.1-20.3,35.8-47,36.4l-1.5,0h-31.4c-4-0.3-7.8,1.1-10.7,3.9c-2.6,2.5-4.1,6-4.2,9.7l0,0.9c0,6.8,5.3,12.3,11.9,12.7l0.7,0  h72.4c13.5,0.4,27.6,10.5,28.2,30.3l0,1.3v3.1H668.4c-12.9,0.4-25.4-4.3-34.7-13.2c-9-8.5-14.3-20.2-14.9-32.5l0-1.5v-71.6  c0.2-12.9,5.5-25.2,14.9-34.1C642.6,204.9,654.5,200.2,666.9,200.2L666.9,200.2z"></path>	<path class="st0" d="M75.8,43.2l2.1-1.3C147-0.6,196.9-0.9,233.9,0.3l5.1,0.2c44.3,1.6,91.4,16.8,97.9,19l0.3-14.7  c0-0.2,0-0.4,0.2-0.5c0.1-0.1,0.2-0.1,0.3-0.1l3,0.4c13,2,66.5,11,90.5,25c2.3,1.4,4.3,3.1,6.1,5l0.9,1c7,7.2,15.4,35.8,17.8,44.3  c0.6,2.1-1.9,3.8-2.6,4.2l-2.5,1.7c-7.1,4.8-20.5,12.7-36.9,11.2c-16.9-1.5-39-11.1-65.4-28.5l7.6,18l0.4,0.4l3.6,1.8  c10.6,5.2,39.7,18.8,55.2,18.5c12.2-0.8,24.1-4.3,34.9-10.2l2.1-1.2c0.7-0.4,3-1.3,2.1,1.8l-1.1,4.4c-0.2,0.6-0.3,1.2-0.5,1.7  l-0.2,0.7l-0.5,1.3c-0.5,1.8-1.4,3.5-2.7,4.8c-5.8,4.3-12.1,7.7-18.9,10.1c-17.6,7.1-36.5,10.5-55.5,10.1  c-6.7-0.1-13.3-0.8-19.3-1.5l-5.8-0.7c-18.4-2-31.5-2.5-34.4,14.7c-2,12,4,26.1,12.7,39l0.9,1.3h-35.1l-1-1.7  c-10.9-20.4-16.9-47.6-56.7-47.6c-36.4,0-35.2,34.9-31.2,48.4l0.3,1h-33.1c-13.7-49.7-50-71.1-73.9-75.3L97,108  c-17.2-2.6-46.5-2-62.2,27.7c-6.7,14.2-6.2,30.7,1.4,44.4s21.3,22.9,36.9,24.7c15.9,1.7,27.9-2,34.7-10.7c6.8-8.7,8-20.6,3.2-30.5  c-4.1-9.7-13.3-16.2-23.8-16.9c-6.2-1-12.5,1.3-16.6,6.2c-1,1.5-1.6,3.3-1.8,5.1l-0.1,0.9l0,0.7c0.3,4.8,3.9,8.7,8.6,9.4  c1.4,0,2.8-0.2,4.1-0.4l1.4-0.3l1.4-0.5l1-0.3h0.7c4.8-1,9.5,1.6,11.4,6.1c1.7,4.3,0.4,9.1-3.2,11.9l-0.6,0.4h-0.3l-0.5,0.3  c-1.3,0.8-2.7,1.5-4.2,1.9c-3.7,1.2-7.6,1.8-11.5,1.8c-16.6-0.6-29.8-14.2-30-30.8c0-11.5,5.9-22.2,15.6-28.3  c15.1-8.9,33.9-8.7,48.8,0.4l1.2,0.8c20.2,12.6,29.5,37.1,22.8,60c-8.8,27-33,41.5-65,38.5c-22.6-1.9-43.2-13.7-56.4-32.1  c-5.5-7.8-9.5-16.6-11.9-25.8C-1.7,155.3-0.3,137.5,6,121c12-29.7,34.7-55.5,67.6-76.4l4.4-2.8L75.8,43.2z M427.8,39.7  c-7.5-8.1-19.1-10.8-29.5-6.9c-10.3,3.9-17.3,13.6-17.6,24.6c-0.5,15,11.3,27.5,26.2,28.1c11,0.4,21.2-5.9,25.7-15.9  S435.4,47.7,427.8,39.7z M407.7,38.9l0.9,0c6.8,0.2,13,4.1,16.2,10.1c3.2,6,3,13.2-0.6,19c-3.6,5.8-10,9.2-16.8,9  c-5.1-0.2-9.8-2.4-13.3-6.1c-3.4-3.7-5.2-8.6-5-13.7C389.4,47.1,397.7,39.1,407.7,38.9L407.7,38.9z M411.5,48.6l0.2,0  c-4.6,0-8.6,2.5-8.6,5.6c0,3.1,3.8,5.6,8.5,5.6c4.7,0,8.5-2.5,8.5-5.6c0-3-3.4-5.4-7.7-5.6L411.5,48.6z"></path></g></svg>