<svg xmlns="http://www.w3.org/2000/svg" xmlns:xlink="http://www.w3.org/1999/xlink" id="Layer_1" x="0px" y="0px" viewBox="0 0 800 227.1" style="enable-background:new 0 0 800 227.1;" xml:space="preserve"><style type="text/css">	.st0{fill:#EBEBEB;}	.st1{fill-rule:evenodd;clip-rule:evenodd;fill:#EBEBEB;}</style><g>	<path class="st0" d="M737.3,195.1h23L800,94.5h-22.7l-16.4,50.1l-17.3-50.1h-25.4l30.2,72.7L737.3,195.1z M623.4,118.4v51.6h-23.2  V94.5h16.3l4.8,6.6c6.3-5.3,13-8.4,20.8-8.4c10.4,0,18.3,3.1,23.2,10.7c7-6.5,14.5-10.7,24-10.7c17.9,0,28.3,9.2,28.3,34.3v42.9  h-23.2v-40.3c0-11.6-4.7-15-12.2-15c-4.4,0-8.1,1.2-12.2,3.8c0.3,2.6,0.4,5.4,0.4,8.5v42.9h-23.2v-40.3c0-11.6-4.7-15-12.3-15  C630.9,114.7,627.4,115.7,623.4,118.4L623.4,118.4z M542.6,124.8h29.8c-1.6-9.8-6.9-14.5-14.8-14.5  C550.8,110.3,544.4,114.2,542.6,124.8L542.6,124.8z M559.2,171.4c-22.3,0-40.2-11-40.2-40c0-27.1,17.3-38.8,37.2-38.8  c24,0,34.7,16.9,34.7,43.4h-48.5c1.6,13,9.7,16.9,20.4,16.9c10.3,0,18.4-2.6,24.7-6.8l-3.1,18.4C578.4,169,571.3,171.4,559.2,171.4  L559.2,171.4z M473,151.9c5.3,0,9.2-0.9,13.3-4v-32.8c-3.7-2.2-7.3-3.2-12.6-3.2c-11.3,0-17.7,7.6-17.7,20.4  C456,144.7,462.6,151.9,473,151.9L473,151.9z M490.8,164.4c-6,4.5-12.9,7.3-22.7,7.3c-20.7,0-35.6-12.8-35.6-39  c0-26.1,17.2-40.2,39.1-40.2c5.1,0,10.1,0.7,14.7,2.5V63h23.2v106.9h-14.7L490.8,164.4z M334.4,125.2V69.3h24v55.5  c0,19.9,8.9,24,21.3,24c13.3,0,20.2-5.9,20.2-24V69.3h24.2v55.9c0,33-14.4,46.8-45.6,46.8C349.5,172,334.4,160.1,334.4,125.2  L334.4,125.2z"></path>	<path class="st0" d="M273.1,129.4c-1-0.8-2.1-1.3-3.3-1.5c-7.1,7-15.7,14.4-23.3,19.4c-3.5,2.3-8,3.5-10.9,3.5  c-6.8,0-9.7-6.4-10.6-16.7c-1.2-13.8-2-30.2-2-55.7c0-26.1-5.9-43.9-21.7-45.3c-0.7-0.1-1.3-0.1-2-0.1c-9.7,0-14.4,5-20.6,17.6  c-5.3,10.8-13.5,26.6-28.8,56.5c-13.2,25.8-27.9,48.6-40.5,64.4c-3.5,4.4-6.3,7.4-8.9,9.1c-1.7,1.1-3.4,1.7-5.2,1.7  c-5,0-8.6-4.2-9.8-14c-0.3-2.3-0.4-5-0.4-7.9c0-20.2,7.6-53,20.9-101.3C115.6,24,111.5,0,90.4,0c0,0-0.1,0-0.1,0c0,0-0.1,0-0.1,0  l0,0c-4.8,0.1-8.8,1.8-12.6,4.8c-3.8,3-7.5,9.4-11.1,18c-4,9.7-28.1,58.1-66.5,83c-0.5,9.5,4.9,18.9,15.8,20  c9.9,0.9,16.9-3.2,26-9.3c-0.7,3-1.3,5.8-1.9,8.4c-0.7,3.1-1.2,5.7-1.7,7.8c-0.7,3.2-1.1,5.2-1.3,5.8c-1.3,5.8-2.2,11.2-2.7,16.4  c-5.4,48.4,17,72.2,43.3,72.2c4.4,0,8.7-0.5,13.1-1.6c28.9-7.3,56.8-40.5,89.7-116.9c-0.5,8.3-0.6,16.1-0.2,23.3  c2.2,43.8,19.5,56.9,44,56.9c18.5,0,35.8-9.7,44.6-21.7c6.5-8.5,9.1-17.9,9.1-25.2C277.8,136.3,276,131.7,273.1,129.4"></path></g></svg>